<?xml version="1.0" encoding="utf-8"?>
<!-- Generator: Adobe Illustrator 26.4.1, SVG Export Plug-In . SVG Version: 6.00 Build 0)  -->
<svg version="1.1" xmlns="http://www.w3.org/2000/svg" xmlns:xlink="http://www.w3.org/1999/xlink" x="0px" y="0px"
	 viewBox="0 0 1366 524" style="enable-background:new 0 0 1366 524;" xml:space="preserve">
<style type="text/css">
	.st0{fill:#015742;}
	.st1{clip-path:url(#SVGID_00000183229317872273117550000006264257384951218600_);}
	.st2{fill:#028061;}
	.st3{fill:#F58220;}
	.st4{fill:#EC1E2F;}
	.st5{fill:#FFFFFF;}
	.st6{opacity:0.455;}
	.st7{fill:#DBF1FB;}
	.st8{fill:none;stroke:#8A6864;stroke-width:6;}
	.st9{fill:#654C4A;}
	.st10{opacity:0.834;}
	.st11{opacity:0.765;fill:#461713;enable-background:new    ;}
	.st12{fill:#EABB96;}
</style>
<g id="text_00000163762108238148017280000010620323973934799020_">
	<g id="text">
		<g id="Group_434" transform="translate(611 229)">
			<path id="Path_2302" class="st0" d="M0.7,27.3h5.6V7.1H0.7V27.3z M0.4,4.8h6.3V1.3H0.4V4.8z"/>
			<g id="Group_433" transform="translate(0 0)">
				<g>
					<g>
						<defs>
							<rect id="SVGID_1_" width="144.6" height="28"/>
						</defs>
						<clipPath id="SVGID_00000153665733559779707870000001538230106164267392_">
							<use xlink:href="#SVGID_1_"  style="overflow:visible;"/>
						</clipPath>
						<g id="Group_432" style="clip-path:url(#SVGID_00000153665733559779707870000001538230106164267392_);">
							<path id="Path_2303" class="st0" d="M0.4,1.3h6.3v3.5H0.4V1.3z M0.7,7.1h5.6v20.2H0.7V7.1z"/>
							<path id="Path_2304" class="st0" d="M9.9,7.1h5.4c0,0.6-0.2,1.4-1.2,3l0.6,0.1c1.5-2.4,3.5-3.3,6.6-3.3c3.2,0,4.7,1,4.7,3.1
								v17.4h-5.5V10.6c0-0.8-0.6-1.3-1.7-1.3c-2,0-3.4,2-3.4,4.8v13.2H9.9V7.1z"/>
							<path id="Path_2305" class="st0" d="M9.9,7.1h5.4c0,0.6-0.2,1.4-1.2,3l0.6,0.1c1.5-2.4,3.5-3.3,6.6-3.3c3.2,0,4.7,1,4.7,3.1
								v17.4h-5.5V10.6c0-0.8-0.6-1.3-1.7-1.3c-2,0-3.4,2-3.4,4.8v13.2H9.9V7.1z"/>
							<path id="Path_2306" class="st0" d="M40.2,3H34V0.4h18.2V3H46v24.3h-5.7L40.2,3L40.2,3z"/>
							<path id="Path_2307" class="st0" d="M40.2,3H34V0.4h18.2V3H46v24.3h-5.7L40.2,3L40.2,3z"/>
							<path id="Path_2308" class="st0" d="M50.6,23.6v-1.3c0-3.6,3.1-5,6.8-6.3l3.7-1.2v-3.9c0-1.2-0.7-1.7-2.1-1.7
								c-1.7,0-2.4,0.7-2.3,2.7v3l-5.4-0.5v-2.7c-0.1-3.2,2.5-4.9,7.8-4.9c5.1,0,7.6,1.4,7.6,4.1v12.9c0,1,0.4,1.2,1.6,1.2H69
								l-0.7,2.5c-0.5,0.1-1,0.1-1.5,0.1c-3.5,0-4.4-1-3.7-3.3l-0.6-0.1c-0.9,2.2-3,3.4-6.2,3.4C52.5,27.6,50.6,26.1,50.6,23.6
								 M61,22.1v-4.7L59.2,18c-1.8,0.6-3.1,1.5-3.1,3.6V23c0,1.4,0.7,2.1,2,2.1c1.5,0.1,2.8-1,2.9-2.5C61,22.5,61,22.3,61,22.1"/>
							<path id="Path_2309" class="st0" d="M50.6,23.6v-1.3c0-3.6,3.1-5,6.8-6.3l3.7-1.2v-3.9c0-1.2-0.7-1.7-2.1-1.7
								c-1.7,0-2.4,0.7-2.3,2.7v3l-5.4-0.5v-2.7c-0.1-3.2,2.5-4.9,7.8-4.9c5.1,0,7.6,1.4,7.6,4.1v12.9c0,1,0.4,1.2,1.6,1.2H69
								l-0.7,2.5c-0.5,0.1-1,0.1-1.5,0.1c-3.5,0-4.4-1-3.7-3.3l-0.6-0.1c-0.9,2.2-3,3.4-6.2,3.4C52.5,27.6,50.6,26.1,50.6,23.6z
								 M61,22.1v-4.7L59.2,18c-1.8,0.6-3.1,1.5-3.1,3.6V23c0,1.4,0.7,2.1,2,2.1c1.5,0.1,2.8-1,2.9-2.5C61,22.5,61,22.3,61,22.1z"/>
							<path id="Path_2310" class="st0" d="M70.7,1.3H77v3.5h-6.3V1.3z M71,7.1h5.6v20.2H71V7.1z"/>
							<path id="Path_2311" class="st0" d="M70.7,1.3H77v3.5h-6.3V1.3z M71,7.1h5.6v20.2H71V7.1z"/>
							<path id="Path_2312" class="st0" d="M78.7,7.1h5.6l1.8,10.3c0.3,1.7,0.4,2.9,0.6,5h0.5c0.1-1.7,0.3-3.4,0.7-5l1.9-10.3h5.8
								l2,10.3c0.3,1.7,0.6,3.3,0.7,5h0.5c0.1-1.7,0.3-3.4,0.6-5l1.8-10.3h5.4l-4.7,20.2h-6.4L93.7,18c-0.4-1.9-0.6-3.8-0.8-5.7
								h-0.5c-0.2,1.9-0.4,3.8-0.8,5.7l-1.8,9.3h-6.4L78.7,7.1z"/>
							<path id="Path_2313" class="st0" d="M78.7,7.1h5.6l1.8,10.3c0.3,1.7,0.4,2.9,0.6,5h0.5c0.1-1.7,0.3-3.4,0.7-5l1.9-10.3h5.8
								l2,10.3c0.3,1.7,0.6,3.3,0.7,5h0.5c0.1-1.7,0.3-3.4,0.6-5l1.8-10.3h5.4l-4.7,20.2h-6.4L93.7,18c-0.4-1.9-0.6-3.8-0.8-5.7
								h-0.5c-0.2,1.9-0.4,3.8-0.8,5.7l-1.8,9.3h-6.4L78.7,7.1z"/>
							<path id="Path_2314" class="st0" d="M107.7,23.6v-1.3c0-3.6,3.1-5,6.8-6.3l3.7-1.2v-3.9c0-1.2-0.7-1.7-2.1-1.7
								c-1.7,0-2.4,0.7-2.3,2.7v3l-5.4-0.5v-2.7c-0.1-3.2,2.5-4.9,7.8-4.9c5.1,0,7.6,1.4,7.6,4.1v12.9c0,1,0.4,1.2,1.6,1.2h0.7
								l-0.7,2.5c-0.5,0.1-1,0.1-1.5,0.1c-3.5,0-4.4-1-3.7-3.3l-0.6-0.1c-0.9,2.2-3,3.4-6.2,3.4C109.6,27.6,107.7,26.1,107.7,23.6
								 M118.1,22.1v-4.7l-1.8,0.6c-1.8,0.6-3.1,1.5-3.1,3.6V23c0,1.4,0.7,2.1,2,2.1c1.5,0.1,2.8-1,2.9-2.5
								C118.2,22.5,118.1,22.3,118.1,22.1"/>
							<path id="Path_2315" class="st0" d="M107.7,23.6v-1.3c0-3.6,3.1-5,6.8-6.3l3.7-1.2v-3.9c0-1.2-0.7-1.7-2.1-1.7
								c-1.7,0-2.4,0.7-2.3,2.7v3l-5.4-0.5v-2.7c-0.1-3.2,2.5-4.9,7.8-4.9c5.1,0,7.6,1.4,7.6,4.1v12.9c0,1,0.4,1.2,1.6,1.2h0.7
								l-0.7,2.5c-0.5,0.1-1,0.1-1.5,0.1c-3.5,0-4.4-1-3.7-3.3l-0.6-0.1c-0.9,2.2-3,3.4-6.2,3.4C109.6,27.6,107.7,26.1,107.7,23.6z
								 M118.1,22.1v-4.7l-1.8,0.6c-1.8,0.6-3.1,1.5-3.1,3.6V23c0,1.4,0.7,2.1,2,2.1c1.5,0.1,2.8-1,2.9-2.5
								C118.2,22.5,118.2,22.3,118.1,22.1z"/>
							<path id="Path_2316" class="st0" d="M128.1,7.1h5.4c0,0.6-0.2,1.4-1.2,3l0.6,0.1c1.5-2.4,3.5-3.3,6.6-3.3
								c3.2,0,4.7,1,4.7,3.1v17.4h-5.5V10.6c0-0.8-0.6-1.3-1.7-1.3c-2,0-3.4,2-3.4,4.8v13.2H128L128.1,7.1L128.1,7.1z"/>
							<path id="Path_2317" class="st0" d="M128.1,7.1h5.4c0,0.6-0.2,1.4-1.2,3l0.6,0.1c1.5-2.4,3.5-3.3,6.6-3.3
								c3.2,0,4.7,1,4.7,3.1v17.4h-5.5V10.6c0-0.8-0.6-1.3-1.7-1.3c-2,0-3.4,2-3.4,4.8v13.2H128L128.1,7.1L128.1,7.1z"/>
						</g>
					</g>
				</g>
			</g>
		</g>
	</g>
</g>
<g id="bg_00000000926910029310867300000008996892941374858374_">
	<g id="bg">
		<rect id="Rectangle_310" x="-0.6" y="87.4" class="st2" width="1366" height="65.6"/>
		<rect id="Rectangle_311" x="-0.6" y="32.7" class="st3" width="1366" height="37.8"/>
		<rect id="Rectangle_312" x="-0.6" y="169.1" class="st4" width="1366" height="38.5"/>
		<rect id="Rectangle_316" x="573.4" y="1.1" class="st5" width="219" height="219"/>
		<g id="Group_431" transform="translate(-1410.138 729.289)">
			<path id="Path_2292" class="st3" d="M2029.1-696.1h112.2c-11,4.1-44.7,26.9-53.1,42.2h-59L2029.1-696.1z"/>
			<path id="Path_2293" class="st4" d="M2118.5-575.2c-1.6,15.3-1.7,33.9-1.7,53.5h-48.6c-0.1-17.8,0.7-35.7,2.4-53.5H2118.5z"/>
			<path id="Path_2294" class="st2" d="M2035.5-591.3v5.9h7.8v6.8h-17.8v-31.6h17.8v7h-7.8v5.9h7.8v5.9L2035.5-591.3z"/>
			<path id="Path_2295" class="st2" d="M2076.9-591.3v5.9h7.7v6.8h-17.7v-31.6h17.7v7h-7.7v5.9h7.7v5.9L2076.9-591.3z"/>
			<path id="Path_2296" class="st2" d="M2122.4-591.3v5.9h7.8v6.8h-17.8v-31.6h17.8v7h-7.8v5.9h7.8v5.9L2122.4-591.3z"/>
			<path id="Path_2297" class="st2" d="M2064.4-585.4v6.8h-17.8v-31.6h10v24.8H2064.4z"/>
			<path id="Path_2298" class="st2" d="M2086.5-610.2l5,31.6h12.8l6-31.6h-7.4l-3.9,21.4l-3.8-21.4H2086.5z"/>
			<rect id="Rectangle_314" x="2134.4" y="-610.2" class="st2" width="9.6" height="31.6"/>
			<path id="Path_2299" class="st2" d="M2144-600.8c0.5-3.5,5.4-2.5,5.4-0.6v22.8h9.6v-26.8c0-5.7-8-8-15-3V-600.8z"/>
			<path id="Path_2300" class="st4" d="M2123-614.7c1-12.1,17.5-31.8,33.6-37v-46.7c-44.1,19.8-72.8,49.6-79,83.6L2123-614.7
				L2123-614.7z"/>
		</g>
	</g>
</g>
<g id="door-left_00000044160034662152367450000011611135191498011324_">
	<g id="door_00000108293468915922547470000007814622394454915738_">
		<g id="Rectangle_319" class="st6">
			<rect x="197.4" y="221" class="st7" width="479" height="252"/>
			<rect x="200.4" y="224" class="st8" width="473" height="246"/>
		</g>
	</g>
</g>
<g id="door-right_00000161593161850886672600000001223849731268484266_">
	<g id="door">
		<g id="Rectangle_320" transform="translate(491)" class="st6">
			<rect x="197.4" y="221" class="st7" width="479" height="252"/>
			<rect x="200.4" y="224" class="st8" width="473" height="246"/>
		</g>
	</g>
</g>
<g id="walls">
	<path id="Path_2330" class="st9" d="M1220.3,523.2l-45.4-45.8V218.2h45.4V523.2z"/>
	<g id="Group_439" transform="translate(1199 -4)" class="st10">
		<rect id="Rectangle_318" x="24.9" y="222.2" class="st11" width="116" height="305"/>
		<g id="Group_435" transform="translate(34.471 229.906)">
			<path id="Path_2318" class="st12" d="M40.7,23H11v19.7H7.1V23H-7.1v19.7h47.8V23z"/>
			<path id="Path_2319" class="st12" d="M13.4,71.4h29.7v19.7H13.4V71.4z"/>
			<path id="Path_2320" class="st12" d="M-7.1,71.4H7.2v19.7H-7.1V71.4z"/>
			<path id="Path_2321" class="st12" d="M31.1-0.8h34v19.3h-34V-0.8z"/>
			<path id="Path_2322" class="st12" d="M-7.1-0.8h29.6v19.3H-7.1V-0.8z"/>
			<path id="Path_2323" class="st12" d="M89.7,42.7h-3.9V23H54v19.7h49.4V23H89.7V42.7z"/>
			<path id="Path_2324" class="st12" d="M-7.1,67h32.3V47.3h4.3V67h37.2V47.3h4.2V67h32.5V47.2H-7.1V67z"/>
			<path id="Path_2325" class="st12" d="M51.6,71.4h31.8v19.7H51.6V71.4z"/>
			<path id="Path_2326" class="st12" d="M73.7-0.8h29.7v19.3H73.7V-0.8z"/>
			<path id="Path_2327" class="st12" d="M89.7,71.4h13.8v19.7H89.7V71.4z"/>
		</g>
		<g id="Group_436" transform="translate(34.471 328.887)">
			<path id="Path_2318-2" class="st12" d="M40.7,23H11v19.7H7.1V23H-7.1v19.7h47.8V23z"/>
			<path id="Path_2319-2" class="st12" d="M13.4,71.4h29.7v19.7H13.4V71.4z"/>
			<path id="Path_2320-2" class="st12" d="M-7.1,71.4H7.2v19.7H-7.1V71.4z"/>
			<path id="Path_2321-2" class="st12" d="M31.1-0.8h34v19.3h-34V-0.8z"/>
			<path id="Path_2322-2" class="st12" d="M-7.1-0.8h29.6v19.3H-7.1V-0.8z"/>
			<path id="Path_2323-2" class="st12" d="M89.7,42.7h-3.9V23H54v19.7h49.4V23H89.7V42.7z"/>
			<path id="Path_2324-2" class="st12" d="M-7.1,67h32.3V47.3h4.3V67h37.2V47.3h4.2V67h32.5V47.2H-7.1V67z"/>
			<path id="Path_2325-2" class="st12" d="M51.6,71.4h31.8v19.7H51.6V71.4z"/>
			<path id="Path_2326-2" class="st12" d="M73.7-0.8h29.7v19.3H73.7V-0.8z"/>
			<path id="Path_2327-2" class="st12" d="M89.7,71.4h13.8v19.7H89.7V71.4z"/>
		</g>
		<g id="Group_437" transform="translate(34.471 427.868)">
			<path id="Path_2318-3" class="st12" d="M40.7,23H11v19.7H7.1V23H-7.1v19.7h47.8V23z"/>
			<path id="Path_2319-3" class="st12" d="M13.4,71.4h29.7v19.7H13.4V71.4z"/>
			<path id="Path_2320-3" class="st12" d="M-7.1,71.4H7.2v19.7H-7.1V71.4z"/>
			<path id="Path_2321-3" class="st12" d="M31.1-0.8h34v19.3h-34V-0.8z"/>
			<path id="Path_2322-3" class="st12" d="M-7.1-0.8h29.6v19.3H-7.1V-0.8z"/>
			<path id="Path_2323-3" class="st12" d="M89.7,42.7h-3.9V23H54v19.7h49.4V23H89.7V42.7z"/>
			<path id="Path_2324-3" class="st12" d="M-7.1,67h32.3V47.3h4.3V67h37.2V47.3h4.2V67h32.5V47.2H-7.1V67z"/>
			<path id="Path_2325-3" class="st12" d="M51.6,71.4h31.8v19.7H51.6V71.4z"/>
			<path id="Path_2326-3" class="st12" d="M73.7-0.8h29.7v19.3H73.7V-0.8z"/>
			<path id="Path_2327-3" class="st12" d="M89.7,71.4h13.8v19.7H89.7V71.4z"/>
		</g>
	</g>
	<g id="Group_438" transform="translate(0 -4)" class="st10">
		<rect id="Rectangle_318-2" x="24.9" y="222.2" class="st11" width="116" height="305"/>
		<g id="Group_435-2" transform="translate(34.471 229.906)">
			<path id="Path_2318-4" class="st12" d="M40.7,23H11v19.7H7.1V23H-7.1v19.7h47.8V23z"/>
			<path id="Path_2319-4" class="st12" d="M13.4,71.4h29.7v19.7H13.4V71.4z"/>
			<path id="Path_2320-4" class="st12" d="M-7.1,71.4H7.2v19.7H-7.1V71.4z"/>
			<path id="Path_2321-4" class="st12" d="M31.1-0.8h34v19.3h-34V-0.8z"/>
			<path id="Path_2322-4" class="st12" d="M-7.1-0.8h29.6v19.3H-7.1V-0.8z"/>
			<path id="Path_2323-4" class="st12" d="M89.7,42.7h-3.9V23H54v19.7h49.4V23H89.7V42.7z"/>
			<path id="Path_2324-4" class="st12" d="M-7.1,67h32.3V47.3h4.3V67h37.2V47.3h4.2V67h32.5V47.2H-7.1V67z"/>
			<path id="Path_2325-4" class="st12" d="M51.6,71.4h31.8v19.7H51.6V71.4z"/>
			<path id="Path_2326-4" class="st12" d="M73.7-0.8h29.7v19.3H73.7V-0.8z"/>
			<path id="Path_2327-4" class="st12" d="M89.7,71.4h13.8v19.7H89.7V71.4z"/>
		</g>
		<g id="Group_436-2" transform="translate(34.471 328.887)">
			<path id="Path_2318-5" class="st12" d="M40.7,23H11v19.7H7.1V23H-7.1v19.7h47.8V23z"/>
			<path id="Path_2319-5" class="st12" d="M13.4,71.4h29.7v19.7H13.4V71.4z"/>
			<path id="Path_2320-5" class="st12" d="M-7.1,71.4H7.2v19.7H-7.1V71.4z"/>
			<path id="Path_2321-5" class="st12" d="M31.1-0.8h34v19.3h-34V-0.8z"/>
			<path id="Path_2322-5" class="st12" d="M-7.1-0.8h29.6v19.3H-7.1V-0.8z"/>
			<path id="Path_2323-5" class="st12" d="M89.7,42.7h-3.9V23H54v19.7h49.4V23H89.7V42.7z"/>
			<path id="Path_2324-5" class="st12" d="M-7.1,67h32.3V47.3h4.3V67h37.2V47.3h4.2V67h32.5V47.2H-7.1V67z"/>
			<path id="Path_2325-5" class="st12" d="M51.6,71.4h31.8v19.7H51.6V71.4z"/>
			<path id="Path_2326-5" class="st12" d="M73.7-0.8h29.7v19.3H73.7V-0.8z"/>
			<path id="Path_2327-5" class="st12" d="M89.7,71.4h13.8v19.7H89.7V71.4z"/>
		</g>
		<g id="Group_437-2" transform="translate(34.471 427.868)">
			<path id="Path_2318-6" class="st12" d="M40.7,23H11v19.7H7.1V23H-7.1v19.7h47.8V23z"/>
			<path id="Path_2319-6" class="st12" d="M13.4,71.4h29.7v19.7H13.4V71.4z"/>
			<path id="Path_2320-6" class="st12" d="M-7.1,71.4H7.2v19.7H-7.1V71.4z"/>
			<path id="Path_2321-6" class="st12" d="M31.1-0.8h34v19.3h-34V-0.8z"/>
			<path id="Path_2322-6" class="st12" d="M-7.1-0.8h29.6v19.3H-7.1V-0.8z"/>
			<path id="Path_2323-6" class="st12" d="M89.7,42.7h-3.9V23H54v19.7h49.4V23H89.7V42.7z"/>
			<path id="Path_2324-6" class="st12" d="M-7.1,67h32.3V47.3h4.3V67h37.2V47.3h4.2V67h32.5V47.2H-7.1V67z"/>
			<path id="Path_2325-6" class="st12" d="M51.6,71.4h31.8v19.7H51.6V71.4z"/>
			<path id="Path_2326-6" class="st12" d="M73.7-0.8h29.7v19.3H73.7V-0.8z"/>
			<path id="Path_2327-6" class="st12" d="M89.7,71.4h13.8v19.7H89.7V71.4z"/>
		</g>
	</g>
	<path id="Path_2329" class="st9" d="M142.9,523.2l45.4-45.8V218.2h-45.4V523.2z"/>
</g>
</svg>
